<?xml version="1.0" standalone="no"?>
<!DOCTYPE svg PUBLIC "-//W3C//DTD SVG 20010904//EN"
 "http://www.w3.org/TR/2001/REC-SVG-20010904/DTD/svg10.dtd">
<svg version="1.0" xmlns="http://www.w3.org/2000/svg"
 width="700.000000pt" height="700.000000pt" viewBox="0 0 700.000000 700.000000"
 preserveAspectRatio="xMidYMid meet">
<metadata>
Created by potrace 1.14, written by Peter Selinger 2001-2017
</metadata>
<g transform="translate(0.000000,700.000000) scale(0.100000,-0.100000)"
fill="#000000" stroke="none">
<path d="M4002 5530 c-95 -43 -122 -137 -72 -250 15 -36 78 -182 140 -325 62
-143 118 -273 126 -290 7 -16 29 -66 48 -110 l35 -80 -597 -3 c-328 -1 -599 1
-603 5 -4 5 -21 60 -39 123 -18 63 -41 142 -51 174 -11 33 -17 61 -15 63 1 2
66 5 143 6 117 3 145 6 174 23 92 53 87 186 -9 235 -29 15 -78 16 -445 13
-248 -3 -425 -9 -445 -15 -78 -25 -110 -132 -61 -203 36 -54 63 -60 248 -61
l165 0 7 -25 c4 -14 23 -81 43 -150 20 -69 43 -150 53 -180 9 -30 16 -60 16
-66 0 -9 -60 -101 -218 -329 -23 -33 -76 -110 -118 -171 l-77 -111 -64 32
c-58 30 -188 82 -226 90 -14 3 -40 9 -135 31 -16 3 -103 8 -192 9 -221 4 -353
-23 -551 -116 -450 -211 -732 -668 -717 -1164 4 -136 5 -145 24 -237 7 -32 12
-60 12 -63 -1 -13 63 -175 95 -238 85 -169 243 -352 399 -461 442 -310 1015
-305 1465 12 154 109 325 319 403 497 54 125 68 169 95 323 l16 92 41 1 c22 0
117 0 210 0 146 -1 174 1 198 16 17 11 204 283 478 693 248 371 456 681 462
687 10 10 22 -9 55 -87 23 -56 42 -104 42 -108 0 -4 -26 -23 -57 -41 -32 -19
-87 -60 -123 -90 -295 -249 -454 -589 -453 -971 1 -340 127 -642 368 -884 303
-304 731 -430 1155 -341 98 21 182 51 290 103 240 118 451 328 570 571 88 179
124 336 124 551 1 173 -10 244 -60 398 -76 235 -229 451 -424 600 -30 23 -61
47 -68 53 -27 22 -238 126 -292 143 -147 48 -212 58 -395 61 -109 2 -173 -2
-237 -14 l-86 -17 -17 35 c-10 20 -51 115 -92 211 -72 168 -186 431 -223 515
-10 22 -82 189 -160 370 -78 182 -152 353 -166 381 -41 83 -132 120 -212 84z
m-63 -1907 c-231 -346 -423 -629 -427 -631 -4 -1 -19 40 -33 90 -15 51 -70
244 -124 428 -54 184 -101 349 -105 365 -5 17 -27 93 -50 170 -23 77 -45 155
-50 173 l-8 32 609 0 609 0 -421 -627z m-807 -128 c161 -556 188 -652 188
-660 0 -3 -56 -5 -125 -5 -93 0 -125 3 -126 13 0 6 -2 21 -3 32 -41 289 -172
546 -380 746 l-59 57 29 39 c16 21 52 71 79 111 28 41 57 84 65 95 8 12 44 65
80 117 l64 95 18 -60 c11 -33 87 -294 170 -580z m-1212 141 c63 -6 156 -27
216 -49 66 -24 125 -57 119 -67 -3 -4 -87 -127 -187 -272 -330 -478 -338 -491
-338 -521 0 -15 7 -41 15 -57 30 -58 31 -58 500 -59 237 0 445 0 463 0 34 -1
34 -1 28 -43 -10 -69 -37 -159 -72 -236 -109 -239 -309 -419 -564 -505 -131
-44 -357 -54 -480 -22 -3 1 -21 5 -40 9 -135 31 -298 126 -416 242 -180 177
-273 403 -273 664 1 471 371 878 834 917 39 3 71 6 73 8 3 2 21 1 122 -9z
m3375 -1 c185 -18 378 -109 531 -252 94 -88 196 -248 237 -373 44 -134 59
-321 35 -447 -4 -27 -11 -61 -13 -76 -13 -72 -83 -222 -146 -313 -86 -125
-256 -259 -409 -322 -174 -71 -400 -86 -580 -38 -423 112 -708 492 -695 926 2
58 6 114 9 125 2 11 9 40 15 65 58 252 243 488 476 608 108 56 219 88 340 99
33 3 61 6 62 7 3 3 50 0 138 -9z m-2689 -431 c55 -88 98 -196 119 -294 8 -39
15 -73 15 -75 0 -3 -156 -5 -346 -5 -275 0 -344 2 -338 12 13 22 335 491 362
527 l26 34 58 -63 c32 -34 79 -96 104 -136z"/>
</g>
</svg>
